STARTFONT 2.1
FONT -ibm-courier-bold-r-normal--14-140-75-75-m-77-iso8859-2
SIZE 14 75 75
FONTBOUNDINGBOX 13 16 -1 -2
COMMENT $Header: courB14.bdf,v 1.1 96/01/22 23:45:31 peterlin Exp $
COMMENT 
COMMENT Copyright International Business Machines,Corp. 1991
COMMENT IBM Courier is a Trademark of the IBM Corporation.
COMMENT 
COMMENT Automatic rendering from Adobe Type 1 outline:
COMMENT Primoz Peterlin <primoz.peterlin@biofiz.mf.uni-lj.si>
COMMENT courb.pfa rendered at 15.000000 points
COMMENT Checksum eb69a063
STARTPROPERTIES 3
FONT_ASCENT 13
FONT_DESCENT 2
DEFAULT_CHAR 32
ENDPROPERTIES
CHARS 191
STARTCHAR space
ENCODING 32
SWIDTH 572 0
DWIDTH 9 0
BBX 0 0 0 1
BITMAP
ENDCHAR
STARTCHAR exclam
ENCODING 33
SWIDTH 572 0
DWIDTH 9 0
BBX 3 9 3 1
BITMAP
60
60
60
60
60
60
60
e0
40
ENDCHAR
STARTCHAR quotedbl
ENCODING 34
SWIDTH 572 0
DWIDTH 9 0
BBX 5 5 2 5
BITMAP
d8
d8
d8
d8
d8
ENDCHAR
STARTCHAR numbersign
ENCODING 35
SWIDTH 572 0
DWIDTH 9 0
BBX 8 12 1 0
BITMAP
66
66
66
66
ff
66
66
66
ff
64
66
66
ENDCHAR
STARTCHAR dollar
ENCODING 36
SWIDTH 572 0
DWIDTH 9 0
BBX 7 13 1 -1
BITMAP
18
18
7e
fe
ce
de
3e
de
d6
fe
fc
18
18
ENDCHAR
STARTCHAR percent
ENCODING 37
SWIDTH 572 0
DWIDTH 9 0
BBX 10 10 0 1
BITMAP
7800
cc00
cc00
7980
0600
1800
6780
0cc0
0cc0
0780
ENDCHAR
STARTCHAR ampersand
ENCODING 38
SWIDTH 572 0
DWIDTH 9 0
BBX 8 9 1 1
BITMAP
3e
6c
60
30
77
de
cc
4e
7f
ENDCHAR
STARTCHAR quoteright
ENCODING 39
SWIDTH 572 0
DWIDTH 9 0
BBX 4 4 2 6
BITMAP
60
60
60
c0
ENDCHAR
STARTCHAR parenleft
ENCODING 40
SWIDTH 572 0
DWIDTH 9 0
BBX 4 12 4 0
BITMAP
30
60
60
40
c0
c0
c0
c0
40
60
60
30
ENDCHAR
STARTCHAR parenright
ENCODING 41
SWIDTH 572 0
DWIDTH 9 0
BBX 4 12 2 0
BITMAP
c0
40
60
60
30
30
30
30
30
60
60
c0
ENDCHAR
STARTCHAR asterisk
ENCODING 42
SWIDTH 572 0
DWIDTH 9 0
BBX 7 6 1 4
BITMAP
30
52
fc
38
78
6c
ENDCHAR
STARTCHAR plus
ENCODING 43
SWIDTH 572 0
DWIDTH 9 0
BBX 8 8 1 2
BITMAP
18
18
18
18
ff
18
18
18
ENDCHAR
STARTCHAR comma
ENCODING 44
SWIDTH 572 0
DWIDTH 9 0
BBX 4 4 2 -1
BITMAP
70
60
60
c0
ENDCHAR
STARTCHAR minus
ENCODING 45
SWIDTH 572 0
DWIDTH 9 0
BBX 8 1 1 6
BITMAP
ff
ENDCHAR
STARTCHAR period
ENCODING 46
SWIDTH 572 0
DWIDTH 9 0
BBX 3 3 3 1
BITMAP
e0
e0
40
ENDCHAR
STARTCHAR slash
ENCODING 47
SWIDTH 572 0
DWIDTH 9 0
BBX 7 14 1 -1
BITMAP
02
06
04
0c
08
18
18
30
30
20
60
40
c0
40
ENDCHAR
STARTCHAR zero
ENCODING 48
SWIDTH 572 0
DWIDTH 9 0
BBX 7 10 1 1
BITMAP
3c
64
c6
c6
c6
c6
c6
c6
64
38
ENDCHAR
STARTCHAR one
ENCODING 49
SWIDTH 572 0
DWIDTH 9 0
BBX 7 10 1 1
BITMAP
38
f8
48
18
18
18
18
18
18
7e
ENDCHAR
STARTCHAR two
ENCODING 50
SWIDTH 572 0
DWIDTH 9 0
BBX 7 10 1 1
BITMAP
78
c6
c6
06
04
0c
18
36
66
fe
ENDCHAR
STARTCHAR three
ENCODING 51
SWIDTH 572 0
DWIDTH 9 0
BBX 7 10 1 1
BITMAP
78
ce
06
06
3c
0e
06
06
ce
78
ENDCHAR
STARTCHAR four
ENCODING 52
SWIDTH 572 0
DWIDTH 9 0
BBX 7 10 1 1
BITMAP
1c
1c
2c
6c
4c
8c
fe
0c
0c
3e
ENDCHAR
STARTCHAR five
ENCODING 53
SWIDTH 572 0
DWIDTH 9 0
BBX 7 10 1 1
BITMAP
fe
c0
c0
80
fc
46
06
06
44
f8
ENDCHAR
STARTCHAR six
ENCODING 54
SWIDTH 572 0
DWIDTH 9 0
BBX 7 10 1 1
BITMAP
1e
30
60
40
fc
e6
c6
c6
66
3c
ENDCHAR
STARTCHAR seven
ENCODING 55
SWIDTH 572 0
DWIDTH 9 0
BBX 7 10 1 1
BITMAP
fe
c6
c6
04
0c
0c
08
18
18
10
ENDCHAR
STARTCHAR eight
ENCODING 56
SWIDTH 572 0
DWIDTH 9 0
BBX 7 10 1 1
BITMAP
3c
e6
c6
c6
7c
64
c6
c6
66
3c
ENDCHAR
STARTCHAR nine
ENCODING 57
SWIDTH 572 0
DWIDTH 9 0
BBX 7 10 1 1
BITMAP
38
cc
c6
c6
ce
3e
04
0c
18
f0
ENDCHAR
STARTCHAR colon
ENCODING 58
SWIDTH 572 0
DWIDTH 9 0
BBX 3 7 3 1
BITMAP
e0
e0
40
00
e0
e0
40
ENDCHAR
STARTCHAR semicolon
ENCODING 59
SWIDTH 572 0
DWIDTH 9 0
BBX 3 8 3 0
BITMAP
e0
e0
40
00
e0
c0
c0
80
ENDCHAR
STARTCHAR less
ENCODING 60
SWIDTH 572 0
DWIDTH 9 0
BBX 9 8 0 2
BITMAP
0180
0780
1e00
7000
7800
1e00
0780
0100
ENDCHAR
STARTCHAR equal
ENCODING 61
SWIDTH 572 0
DWIDTH 9 0
BBX 8 4 1 4
BITMAP
ff
00
00
ff
ENDCHAR
STARTCHAR greater
ENCODING 62
SWIDTH 572 0
DWIDTH 9 0
BBX 9 8 0 2
BITMAP
8000
f000
7c00
0f00
0f00
3c00
e000
8000
ENDCHAR
STARTCHAR question
ENCODING 63
SWIDTH 572 0
DWIDTH 9 0
BBX 7 9 1 1
BITMAP
fc
c6
06
0e
3c
30
30
38
10
ENDCHAR
STARTCHAR at
ENCODING 64
SWIDTH 572 0
DWIDTH 9 0
BBX 10 9 0 1
BITMAP
3f00
6180
cec0
dec0
f4c0
f580
db00
6180
3f00
ENDCHAR
STARTCHAR A
ENCODING 65
SWIDTH 572 0
DWIDTH 9 0
BBX 10 9 0 1
BITMAP
3c00
0c00
1e00
1200
3300
3f00
2100
6180
f3c0
ENDCHAR
STARTCHAR B
ENCODING 66
SWIDTH 572 0
DWIDTH 9 0
BBX 8 9 1 1
BITMAP
fe
63
63
66
7e
63
63
63
fe
ENDCHAR
STARTCHAR C
ENCODING 67
SWIDTH 572 0
DWIDTH 9 0
BBX 9 9 1 1
BITMAP
3e00
6300
c300
c000
c000
c000
c100
6300
3e00
ENDCHAR
STARTCHAR D
ENCODING 68
SWIDTH 572 0
DWIDTH 9 0
BBX 9 9 0 1
BITMAP
fe00
6300
6180
6180
6180
6180
6180
6300
fe00
ENDCHAR
STARTCHAR E
ENCODING 69
SWIDTH 572 0
DWIDTH 9 0
BBX 8 9 1 1
BITMAP
ff
63
6f
6c
7c
6f
63
63
ff
ENDCHAR
STARTCHAR F
ENCODING 70
SWIDTH 572 0
DWIDTH 9 0
BBX 8 9 1 1
BITMAP
ff
63
6f
6c
7c
6c
60
60
f0
ENDCHAR
STARTCHAR G
ENCODING 71
SWIDTH 572 0
DWIDTH 9 0
BBX 9 9 0 1
BITMAP
1d00
6380
c180
c000
c000
c780
6180
7180
1f00
ENDCHAR
STARTCHAR H
ENCODING 72
SWIDTH 572 0
DWIDTH 9 0
BBX 9 9 0 1
BITMAP
f780
6300
6300
6300
7f00
6300
6300
6300
f780
ENDCHAR
STARTCHAR I
ENCODING 73
SWIDTH 572 0
DWIDTH 9 0
BBX 7 9 1 1
BITMAP
fe
18
18
18
18
18
18
18
fe
ENDCHAR
STARTCHAR J
ENCODING 74
SWIDTH 572 0
DWIDTH 9 0
BBX 9 9 0 1
BITMAP
1f80
0300
0300
0300
4300
4300
c300
e300
7e00
ENDCHAR
STARTCHAR K
ENCODING 75
SWIDTH 572 0
DWIDTH 9 0
BBX 9 9 1 1
BITMAP
ff00
6600
6c00
5800
7800
6c00
6400
6600
f780
ENDCHAR
STARTCHAR L
ENCODING 76
SWIDTH 572 0
DWIDTH 9 0
BBX 8 9 1 1
BITMAP
f8
60
60
60
60
63
63
63
ff
ENDCHAR
STARTCHAR M
ENCODING 77
SWIDTH 572 0
DWIDTH 9 0
BBX 10 9 0 1
BITMAP
e3c0
7380
5380
7580
6d80
6d80
6180
6180
f3c0
ENDCHAR
STARTCHAR N
ENCODING 78
SWIDTH 572 0
DWIDTH 9 0
BBX 10 9 0 1
BITMAP
e3c0
7180
7980
6980
6d80
6780
6780
6380
f380
ENDCHAR
STARTCHAR O
ENCODING 79
SWIDTH 572 0
DWIDTH 9 0
BBX 9 9 0 1
BITMAP
3e00
6300
c180
c180
c180
c180
6180
6300
1e00
ENDCHAR
STARTCHAR P
ENCODING 80
SWIDTH 572 0
DWIDTH 9 0
BBX 8 9 1 1
BITMAP
fe
63
63
63
7e
60
60
60
f8
ENDCHAR
STARTCHAR Q
ENCODING 81
SWIDTH 572 0
DWIDTH 9 0
BBX 9 11 0 -1
BITMAP
3e00
6300
c180
c180
c180
c180
e180
6300
1e00
3d00
2300
ENDCHAR
STARTCHAR R
ENCODING 82
SWIDTH 572 0
DWIDTH 9 0
BBX 8 9 1 1
BITMAP
fc
66
66
66
7c
68
6c
64
f7
ENDCHAR
STARTCHAR S
ENCODING 83
SWIDTH 572 0
DWIDTH 9 0
BBX 8 9 1 1
BITMAP
7a
c7
c2
e0
3e
07
c3
e7
fc
ENDCHAR
STARTCHAR T
ENCODING 84
SWIDTH 572 0
DWIDTH 9 0
BBX 9 9 0 1
BITMAP
ff80
d980
d980
9980
1800
1800
1800
1800
3e00
ENDCHAR
STARTCHAR U
ENCODING 85
SWIDTH 572 0
DWIDTH 9 0
BBX 9 9 0 1
BITMAP
f780
6180
6180
6180
6180
6180
6180
2300
1e00
ENDCHAR
STARTCHAR V
ENCODING 86
SWIDTH 572 0
DWIDTH 9 0
BBX 10 9 0 1
BITMAP
f3c0
6180
2100
3300
3200
1200
1e00
0c00
0c00
ENDCHAR
STARTCHAR W
ENCODING 87
SWIDTH 572 0
DWIDTH 9 0
BBX 10 9 0 1
BITMAP
f3c0
4180
6d80
6d80
7d80
7780
7380
3300
2300
ENDCHAR
STARTCHAR X
ENCODING 88
SWIDTH 572 0
DWIDTH 9 0
BBX 9 9 0 1
BITMAP
f380
6300
3600
1c00
1c00
3400
3200
6300
f780
ENDCHAR
STARTCHAR Y
ENCODING 89
SWIDTH 572 0
DWIDTH 9 0
BBX 9 9 0 1
BITMAP
f780
6300
3600
1600
1c00
0c00
0c00
0c00
3e00
ENDCHAR
STARTCHAR Z
ENCODING 90
SWIDTH 572 0
DWIDTH 9 0
BBX 8 9 1 1
BITMAP
ff
c6
cc
1c
18
33
63
43
ff
ENDCHAR
STARTCHAR bracketleft
ENCODING 91
SWIDTH 572 0
DWIDTH 9 0
BBX 4 12 4 0
BITMAP
f0
c0
c0
c0
c0
c0
c0
c0
c0
c0
c0
f0
ENDCHAR
STARTCHAR backslash
ENCODING 92
SWIDTH 572 0
DWIDTH 9 0
BBX 7 14 1 -1
BITMAP
80
c0
40
60
20
30
10
10
08
08
0c
04
06
02
ENDCHAR
STARTCHAR bracketright
ENCODING 93
SWIDTH 572 0
DWIDTH 9 0
BBX 3 12 2 0
BITMAP
e0
60
60
60
60
60
60
60
60
60
60
e0
ENDCHAR
STARTCHAR asciicircum
ENCODING 94
SWIDTH 572 0
DWIDTH 9 0
BBX 8 7 1 3
BITMAP
38
3c
24
66
66
c3
c3
ENDCHAR
STARTCHAR underscore
ENCODING 95
SWIDTH 572 0
DWIDTH 9 0
BBX 11 1 -1 -1
BITMAP
ffe0
ENDCHAR
STARTCHAR quoteleft
ENCODING 96
SWIDTH 572 0
DWIDTH 9 0
BBX 4 4 2 6
BITMAP
30
60
60
60
ENDCHAR
STARTCHAR a
ENCODING 97
SWIDTH 572 0
DWIDTH 9 0
BBX 9 7 0 1
BITMAP
3e00
4300
3f00
6300
c300
c700
3f80
ENDCHAR
STARTCHAR b
ENCODING 98
SWIDTH 572 0
DWIDTH 9 0
BBX 9 10 0 1
BITMAP
e000
2000
6000
5e00
7300
6180
6180
6180
7300
fe00
ENDCHAR
STARTCHAR c
ENCODING 99
SWIDTH 572 0
DWIDTH 9 0
BBX 8 7 1 1
BITMAP
3e
63
c3
c0
c1
63
3c
ENDCHAR
STARTCHAR d
ENCODING 100
SWIDTH 572 0
DWIDTH 9 0
BBX 9 10 0 1
BITMAP
0f00
0100
0300
3f00
6300
c100
c100
c300
6300
3f80
ENDCHAR
STARTCHAR e
ENCODING 101
SWIDTH 572 0
DWIDTH 9 0
BBX 8 7 1 1
BITMAP
3c
66
c3
ff
c0
43
3c
ENDCHAR
STARTCHAR f
ENCODING 102
SWIDTH 572 0
DWIDTH 9 0
BBX 7 10 1 1
BITMAP
1c
30
30
fe
30
30
30
30
30
fe
ENDCHAR
STARTCHAR g
ENCODING 103
SWIDTH 572 0
DWIDTH 9 0
BBX 9 9 0 -1
BITMAP
3f80
6700
c300
c300
c300
6700
3d00
0300
1e00
ENDCHAR
STARTCHAR h
ENCODING 104
SWIDTH 572 0
DWIDTH 9 0
BBX 9 10 0 1
BITMAP
e000
2000
6000
5e00
7300
6300
6300
6300
6300
f780
ENDCHAR
STARTCHAR i
ENCODING 105
SWIDTH 572 0
DWIDTH 9 0
BBX 7 11 1 1
BITMAP
18
18
00
00
78
18
18
18
18
18
fe
ENDCHAR
STARTCHAR j
ENCODING 106
SWIDTH 572 0
DWIDTH 9 0
BBX 6 13 1 -1
BITMAP
18
18
00
00
fc
0c
0c
0c
0c
0c
0c
0c
f0
ENDCHAR
STARTCHAR k
ENCODING 107
SWIDTH 572 0
DWIDTH 9 0
BBX 9 10 0 1
BITMAP
f000
1000
3000
3780
2600
3800
3c00
3400
3600
7780
ENDCHAR
STARTCHAR l
ENCODING 108
SWIDTH 572 0
DWIDTH 9 0
BBX 7 10 1 1
BITMAP
18
08
18
18
18
18
18
18
18
fe
ENDCHAR
STARTCHAR m
ENCODING 109
SWIDTH 572 0
DWIDTH 9 0
BBX 9 7 0 1
BITMAP
ff00
d980
d980
d980
d980
d980
fd80
ENDCHAR
STARTCHAR n
ENCODING 110
SWIDTH 572 0
DWIDTH 9 0
BBX 9 7 0 1
BITMAP
fe00
7300
6300
6300
6300
6300
f780
ENDCHAR
STARTCHAR o
ENCODING 111
SWIDTH 572 0
DWIDTH 9 0
BBX 9 7 0 1
BITMAP
3e00
6300
c180
c180
c180
6300
3e00
ENDCHAR
STARTCHAR p
ENCODING 112
SWIDTH 572 0
DWIDTH 9 0
BBX 9 9 0 -1
BITMAP
fe00
7300
6180
6180
6180
7300
7e00
6000
f800
ENDCHAR
STARTCHAR q
ENCODING 113
SWIDTH 572 0
DWIDTH 9 0
BBX 9 9 0 -1
BITMAP
3f80
6300
c300
c300
c300
6700
3f00
0300
0f80
ENDCHAR
STARTCHAR r
ENCODING 114
SWIDTH 572 0
DWIDTH 9 0
BBX 8 7 1 1
BITMAP
ff
39
30
30
30
30
fc
ENDCHAR
STARTCHAR s
ENCODING 115
SWIDTH 572 0
DWIDTH 9 0
BBX 8 7 1 1
BITMAP
7a
c6
e0
7e
c3
c7
fe
ENDCHAR
STARTCHAR t
ENCODING 116
SWIDTH 572 0
DWIDTH 9 0
BBX 8 9 1 1
BITMAP
60
60
fe
60
60
60
60
63
3e
ENDCHAR
STARTCHAR u
ENCODING 117
SWIDTH 572 0
DWIDTH 9 0
BBX 9 7 0 1
BITMAP
e700
6300
6300
6300
6300
6700
3f80
ENDCHAR
STARTCHAR v
ENCODING 118
SWIDTH 572 0
DWIDTH 9 0
BBX 10 7 0 1
BITMAP
f3c0
2100
3300
1200
1e00
1c00
0c00
ENDCHAR
STARTCHAR w
ENCODING 119
SWIDTH 572 0
DWIDTH 9 0
BBX 9 7 0 1
BITMAP
e380
4900
4d00
7f00
3700
3200
3200
ENDCHAR
STARTCHAR x
ENCODING 120
SWIDTH 572 0
DWIDTH 9 0
BBX 9 7 0 1
BITMAP
f780
3600
1800
1c00
3600
3300
f780
ENDCHAR
STARTCHAR y
ENCODING 121
SWIDTH 572 0
DWIDTH 9 0
BBX 9 9 0 -1
BITMAP
f380
6100
3200
3200
1c00
0c00
0800
1800
fc00
ENDCHAR
STARTCHAR z
ENCODING 122
SWIDTH 572 0
DWIDTH 9 0
BBX 7 7 1 1
BITMAP
fe
c4
0c
18
36
66
fe
ENDCHAR
STARTCHAR braceleft
ENCODING 123
SWIDTH 572 0
DWIDTH 9 0
BBX 5 12 3 0
BITMAP
38
60
60
60
30
30
e0
30
20
60
60
38
ENDCHAR
STARTCHAR bar
ENCODING 124
SWIDTH 572 0
DWIDTH 9 0
BBX 2 14 4 -2
BITMAP
c0
c0
c0
c0
c0
c0
c0
c0
c0
c0
c0
c0
c0
c0
ENDCHAR
STARTCHAR braceright
ENCODING 125
SWIDTH 572 0
DWIDTH 9 0
BBX 4 12 2 0
BITMAP
c0
60
60
60
60
60
70
60
60
60
60
c0
ENDCHAR
STARTCHAR asciitilde
ENCODING 126
SWIDTH 572 0
DWIDTH 9 0
BBX 7 3 1 5
BITMAP
62
fe
8c
ENDCHAR
STARTCHAR space
ENCODING 160
SWIDTH 572 0
DWIDTH 9 0
BBX 0 0 0 1
BITMAP
ENDCHAR
STARTCHAR Aogonek
ENCODING 161
SWIDTH 572 0
DWIDTH 9 0
BBX 10 11 0 -1
BITMAP
3c00
0c00
1e00
1600
3300
3f00
2100
6180
f3c0
0300
0380
ENDCHAR
STARTCHAR breve
ENCODING 162
SWIDTH 572 0
DWIDTH 9 0
BBX 6 3 2 9
BITMAP
c4
cc
38
ENDCHAR
STARTCHAR Lslash
ENCODING 163
SWIDTH 572 0
DWIDTH 9 0
BBX 8 9 1 1
BITMAP
f8
60
6c
78
e0
e3
63
63
ff
ENDCHAR
STARTCHAR currency
ENCODING 164
SWIDTH 572 0
DWIDTH 9 0
BBX 8 8 1 2
BITMAP
41
fe
e6
c6
c6
e6
fe
82
ENDCHAR
STARTCHAR Lcaron
ENCODING 165
SWIDTH 572 0
DWIDTH 9 0
BBX 9 10 1 1
BITMAP
0700
fc00
6000
6000
6000
6000
6300
6300
6300
ff00
ENDCHAR
STARTCHAR Sacute
ENCODING 166
SWIDTH 572 0
DWIDTH 9 0
BBX 8 12 1 1
BITMAP
38
20
00
7a
c7
c2
e0
3e
07
c3
e7
fc
ENDCHAR
STARTCHAR section
ENCODING 167
SWIDTH 572 0
DWIDTH 9 0
BBX 7 10 1 0
BITMAP
7e
66
70
f8
cc
66
3e
0c
6c
7c
ENDCHAR
STARTCHAR dieresis
ENCODING 168
SWIDTH 572 0
DWIDTH 9 0
BBX 4 2 3 10
BITMAP
f0
f0
ENDCHAR
STARTCHAR Scaron
ENCODING 169
SWIDTH 572 0
DWIDTH 9 0
BBX 8 13 1 1
BITMAP
24
18
00
00
7a
c7
c2
e0
3e
07
c3
e7
fc
ENDCHAR
STARTCHAR Scedilla
ENCODING 170
SWIDTH 572 0
DWIDTH 9 0
BBX 8 12 1 -2
BITMAP
7a
c7
c2
e0
3e
c3
c3
e7
fc
08
2c
3c
ENDCHAR
STARTCHAR Tcaron
ENCODING 171
SWIDTH 572 0
DWIDTH 9 0
BBX 9 13 0 1
BITMAP
1200
0c00
0000
0000
ff80
d980
d980
9980
1800
1800
1800
1800
3e00
ENDCHAR
STARTCHAR Zacute
ENCODING 172
SWIDTH 572 0
DWIDTH 9 0
BBX 8 12 1 1
BITMAP
38
20
00
ff
c6
cc
1c
18
33
63
43
ff
ENDCHAR
STARTCHAR hyphen
ENCODING 173
SWIDTH 572 0
DWIDTH 9 0
BBX 4 1 3 5
BITMAP
f0
ENDCHAR
STARTCHAR Zcaron
ENCODING 174
SWIDTH 572 0
DWIDTH 9 0
BBX 8 13 1 1
BITMAP
24
18
00
00
ff
c6
cc
1c
18
33
63
43
ff
ENDCHAR
STARTCHAR Zdotaccent
ENCODING 175
SWIDTH 572 0
DWIDTH 9 0
BBX 8 12 1 1
BITMAP
18
00
00
ff
c6
cc
1c
18
33
63
43
ff
ENDCHAR
STARTCHAR degree
ENCODING 176
SWIDTH 572 0
DWIDTH 9 0
BBX 6 5 2 6
BITMAP
78
cc
cc
dc
70
ENDCHAR
STARTCHAR aogonek
ENCODING 177
SWIDTH 572 0
DWIDTH 9 0
BBX 9 9 0 -1
BITMAP
3e00
4300
3f00
6300
c300
c700
3f80
0700
0700
ENDCHAR
STARTCHAR ogonek
ENCODING 178
SWIDTH 572 0
DWIDTH 9 0
BBX 3 3 3 -1
BITMAP
60
e0
60
ENDCHAR
STARTCHAR lslash
ENCODING 179
SWIDTH 572 0
DWIDTH 9 0
BBX 7 10 1 1
BITMAP
18
08
18
16
1c
78
58
18
18
fe
ENDCHAR
STARTCHAR acute
ENCODING 180
SWIDTH 572 0
DWIDTH 9 0
BBX 4 2 3 9
BITMAP
e0
80
ENDCHAR
STARTCHAR lcaron
ENCODING 181
SWIDTH 572 0
DWIDTH 9 0
BBX 9 10 1 1
BITMAP
1f00
0c00
1800
1800
1800
1800
1800
1800
1800
fe00
ENDCHAR
STARTCHAR sacute
ENCODING 182
SWIDTH 572 0
DWIDTH 9 0
BBX 8 10 1 1
BITMAP
38
20
00
7a
c6
e0
7e
c3
c7
fe
ENDCHAR
STARTCHAR caron
ENCODING 183
SWIDTH 572 0
DWIDTH 9 0
BBX 4 2 3 9
BITMAP
d0
60
ENDCHAR
STARTCHAR cedilla
ENCODING 184
SWIDTH 572 0
DWIDTH 9 0
BBX 3 4 4 -2
BITMAP
c0
e0
a0
e0
ENDCHAR
STARTCHAR scaron
ENCODING 185
SWIDTH 572 0
DWIDTH 9 0
BBX 8 10 1 1
BITMAP
34
18
00
7a
c6
e0
7e
c3
c7
fe
ENDCHAR
STARTCHAR scedilla
ENCODING 186
SWIDTH 572 0
DWIDTH 9 0
BBX 8 10 1 -2
BITMAP
7a
c6
e0
7e
c3
c7
fc
10
28
38
ENDCHAR
STARTCHAR tcaron
ENCODING 187
SWIDTH 572 0
DWIDTH 9 0
BBX 8 10 1 1
BITMAP
0e
68
60
fe
60
60
60
60
63
3e
ENDCHAR
STARTCHAR zacute
ENCODING 188
SWIDTH 572 0
DWIDTH 9 0
BBX 7 10 1 1
BITMAP
38
20
00
fe
c4
0c
18
36
66
fe
ENDCHAR
STARTCHAR hungarumlaut
ENCODING 189
SWIDTH 572 0
DWIDTH 9 0
BBX 6 2 2 9
BITMAP
58
90
ENDCHAR
STARTCHAR zcaron
ENCODING 190
SWIDTH 572 0
DWIDTH 9 0
BBX 7 10 1 1
BITMAP
34
18
00
fe
c4
0c
18
36
66
fe
ENDCHAR
STARTCHAR zdotaccent
ENCODING 191
SWIDTH 572 0
DWIDTH 9 0
BBX 7 10 1 1
BITMAP
18
00
00
fe
c4
0c
18
36
66
fe
ENDCHAR
STARTCHAR Racute
ENCODING 192
SWIDTH 572 0
DWIDTH 9 0
BBX 8 12 1 1
BITMAP
38
20
00
fc
66
66
66
7c
68
6c
64
f7
ENDCHAR
STARTCHAR Aacute
ENCODING 193
SWIDTH 572 0
DWIDTH 9 0
BBX 10 12 0 1
BITMAP
1c00
1000
0000
3c00
0c00
1e00
1200
3300
3f00
2100
6180
f3c0
ENDCHAR
STARTCHAR Acircumflex
ENCODING 194
SWIDTH 572 0
DWIDTH 9 0
BBX 10 12 0 1
BITMAP
0c00
0000
0000
3c00
0c00
1e00
1200
3300
3f00
2100
6180
f3c0
ENDCHAR
STARTCHAR Abreve
ENCODING 195
SWIDTH 572 0
DWIDTH 9 0
BBX 10 13 0 1
BITMAP
3100
1200
0c00
0000
3c00
0c00
1e00
1200
3300
3f00
2100
6180
f3c0
ENDCHAR
STARTCHAR Adieresis
ENCODING 196
SWIDTH 572 0
DWIDTH 9 0
BBX 10 13 0 1
BITMAP
1e00
1e00
0000
0000
3c00
0c00
1e00
1200
3300
3f00
2100
6180
f3c0
ENDCHAR
STARTCHAR Lacute
ENCODING 197
SWIDTH 572 0
DWIDTH 9 0
BBX 8 12 1 1
BITMAP
70
40
00
f8
60
60
60
60
63
63
63
ff
ENDCHAR
STARTCHAR Cacute
ENCODING 198
SWIDTH 572 0
DWIDTH 9 0
BBX 9 12 1 1
BITMAP
3800
2000
0000
3e00
6300
c300
c000
c000
c000
c100
6300
3e00
ENDCHAR
STARTCHAR Ccedilla
ENCODING 199
SWIDTH 572 0
DWIDTH 9 0
BBX 9 12 1 -2
BITMAP
3e00
6300
c300
c000
c000
c000
c100
6300
3c00
0800
0c00
1c00
ENDCHAR
STARTCHAR Ccaron
ENCODING 200
SWIDTH 572 0
DWIDTH 9 0
BBX 9 13 1 1
BITMAP
2400
1800
0000
0000
3e00
6300
c300
c000
c000
c000
c100
6300
3e00
ENDCHAR
STARTCHAR Eacute
ENCODING 201
SWIDTH 572 0
DWIDTH 9 0
BBX 8 12 1 1
BITMAP
38
20
00
ff
63
6f
6c
7c
6f
63
63
ff
ENDCHAR
STARTCHAR Eogonek
ENCODING 202
SWIDTH 572 0
DWIDTH 9 0
BBX 8 11 1 -1
BITMAP
ff
63
6f
6c
7c
6f
63
63
ff
0c
0f
ENDCHAR
STARTCHAR Edieresis
ENCODING 203
SWIDTH 572 0
DWIDTH 9 0
BBX 8 13 1 1
BITMAP
3c
3c
00
00
ff
63
6f
6c
7c
6f
63
63
ff
ENDCHAR
STARTCHAR Ecaron
ENCODING 204
SWIDTH 572 0
DWIDTH 9 0
BBX 8 13 1 1
BITMAP
24
18
00
00
ff
63
6f
6c
7c
6f
63
63
ff
ENDCHAR
STARTCHAR Iacute
ENCODING 205
SWIDTH 572 0
DWIDTH 9 0
BBX 7 12 1 1
BITMAP
38
20
00
fe
18
18
18
18
18
18
18
fe
ENDCHAR
STARTCHAR Icircumflex
ENCODING 206
SWIDTH 572 0
DWIDTH 9 0
BBX 7 12 1 1
BITMAP
18
00
00
fe
18
18
18
18
18
18
18
fe
ENDCHAR
STARTCHAR Dcaron
ENCODING 207
SWIDTH 572 0
DWIDTH 9 0
BBX 9 13 0 1
BITMAP
1200
0c00
0000
0000
fe00
6300
6180
6180
6180
6180
6180
6300
fe00
ENDCHAR
STARTCHAR Eth
ENCODING 208
SWIDTH 572 0
DWIDTH 9 0
BBX 9 9 0 1
BITMAP
fe00
6300
6180
6180
f980
6180
6180
6300
fe00
ENDCHAR
STARTCHAR Nacute
ENCODING 209
SWIDTH 572 0
DWIDTH 9 0
BBX 10 12 0 1
BITMAP
1c00
1000
0000
e3c0
7180
7980
6980
6d80
6780
6780
6380
f380
ENDCHAR
STARTCHAR Ncaron
ENCODING 210
SWIDTH 572 0
DWIDTH 9 0
BBX 10 13 0 1
BITMAP
1200
0c00
0000
0000
e3c0
7180
7980
6980
6d80
6780
6780
6380
f380
ENDCHAR
STARTCHAR Oacute
ENCODING 211
SWIDTH 572 0
DWIDTH 9 0
BBX 9 12 0 1
BITMAP
1c00
1000
0000
3e00
6300
c180
c180
c180
c180
6180
6300
1e00
ENDCHAR
STARTCHAR Ocircumflex
ENCODING 212
SWIDTH 572 0
DWIDTH 9 0
BBX 9 12 0 1
BITMAP
0c00
0000
0000
3e00
6300
c180
c180
c180
c180
6180
6300
1e00
ENDCHAR
STARTCHAR Ohungarumlaut
ENCODING 213
SWIDTH 572 0
DWIDTH 9 0
BBX 9 12 0 1
BITMAP
1600
2400
0000
3e00
6300
c180
c180
c180
c180
6180
6300
1e00
ENDCHAR
STARTCHAR Odieresis
ENCODING 214
SWIDTH 572 0
DWIDTH 9 0
BBX 9 13 0 1
BITMAP
1e00
1e00
0000
0000
3e00
6300
c180
c180
c180
c180
6180
6300
1e00
ENDCHAR
STARTCHAR multiply
ENCODING 215
SWIDTH 572 0
DWIDTH 9 0
BBX 7 6 1 3
BITMAP
44
6e
3c
38
6c
c6
ENDCHAR
STARTCHAR Rcaron
ENCODING 216
SWIDTH 572 0
DWIDTH 9 0
BBX 8 13 1 1
BITMAP
24
18
00
00
fc
66
66
66
7c
68
6c
64
f7
ENDCHAR
STARTCHAR Uring
ENCODING 217
SWIDTH 572 0
DWIDTH 9 0
BBX 9 13 0 1
BITMAP
1c00
1e00
0c00
0000
f780
6180
6180
6180
6180
6180
6180
2300
1e00
ENDCHAR
STARTCHAR Uacute
ENCODING 218
SWIDTH 572 0
DWIDTH 9 0
BBX 9 12 0 1
BITMAP
1c00
1000
0000
f780
6180
6180
6180
6180
6180
6180
2300
1e00
ENDCHAR
STARTCHAR Uhungarumlaut
ENCODING 219
SWIDTH 572 0
DWIDTH 9 0
BBX 9 12 0 1
BITMAP
1600
2400
0000
f780
6180
6180
6180
6180
6180
6180
2300
1e00
ENDCHAR
STARTCHAR Udieresis
ENCODING 220
SWIDTH 572 0
DWIDTH 9 0
BBX 9 13 0 1
BITMAP
1e00
1e00
0000
0000
f780
6180
6180
6180
6180
6180
6180
2300
1e00
ENDCHAR
STARTCHAR Yacute
ENCODING 221
SWIDTH 572 0
DWIDTH 9 0
BBX 9 12 0 1
BITMAP
1c00
1000
0000
f780
6300
3600
1600
1c00
0c00
0c00
0c00
3e00
ENDCHAR
STARTCHAR Tcedilla
ENCODING 222
SWIDTH 572 0
DWIDTH 9 0
BBX 9 12 0 -2
BITMAP
ff80
cd80
cd80
8d80
0c00
0c00
0c00
0c00
3e00
0c00
1400
1c00
ENDCHAR
STARTCHAR germandbls
ENCODING 223
SWIDTH 572 0
DWIDTH 9 0
BBX 8 10 1 1
BITMAP
3c
66
66
6c
78
66
63
63
73
fe
ENDCHAR
STARTCHAR racute
ENCODING 224
SWIDTH 572 0
DWIDTH 9 0
BBX 8 10 1 1
BITMAP
38
20
00
ff
39
30
30
30
30
fc
ENDCHAR
STARTCHAR aacute
ENCODING 225
SWIDTH 572 0
DWIDTH 9 0
BBX 9 10 0 1
BITMAP
1c00
1000
0000
3e00
4300
3f00
6300
c300
c700
3f80
ENDCHAR
STARTCHAR acircumflex
ENCODING 226
SWIDTH 572 0
DWIDTH 9 0
BBX 9 10 0 1
BITMAP
0c00
0000
0000
3e00
4300
3f00
6300
c300
c700
3f80
ENDCHAR
STARTCHAR abreve
ENCODING 227
SWIDTH 572 0
DWIDTH 9 0
BBX 9 11 0 1
BITMAP
3100
3300
0e00
0000
3e00
4300
3f00
6300
c300
c700
3f80
ENDCHAR
STARTCHAR adieresis
ENCODING 228
SWIDTH 572 0
DWIDTH 9 0
BBX 9 11 0 1
BITMAP
1e00
1e00
0000
0000
3e00
4300
3f00
6300
c300
c700
3f80
ENDCHAR
STARTCHAR lacute
ENCODING 229
SWIDTH 572 0
DWIDTH 9 0
BBX 7 13 1 1
BITMAP
38
20
00
18
08
18
18
18
18
18
18
18
fe
ENDCHAR
STARTCHAR cacute
ENCODING 230
SWIDTH 572 0
DWIDTH 9 0
BBX 8 10 1 1
BITMAP
38
20
00
3e
63
c3
c0
c1
63
3c
ENDCHAR
STARTCHAR ccedilla
ENCODING 231
SWIDTH 572 0
DWIDTH 9 0
BBX 8 10 1 -2
BITMAP
7a
c7
c3
c0
c1
43
7c
18
0c
3c
ENDCHAR
STARTCHAR ccaron
ENCODING 232
SWIDTH 572 0
DWIDTH 9 0
BBX 8 10 1 1
BITMAP
34
18
00
3e
63
c3
c0
c1
63
3c
ENDCHAR
STARTCHAR eacute
ENCODING 233
SWIDTH 572 0
DWIDTH 9 0
BBX 8 10 1 1
BITMAP
38
20
00
3c
66
c3
ff
c0
43
3c
ENDCHAR
STARTCHAR eogonek
ENCODING 234
SWIDTH 572 0
DWIDTH 9 0
BBX 8 9 1 -1
BITMAP
3c
46
c3
ff
c0
c3
7e
38
3c
ENDCHAR
STARTCHAR edieresis
ENCODING 235
SWIDTH 572 0
DWIDTH 9 0
BBX 8 11 1 1
BITMAP
3c
3c
00
00
3c
66
c3
ff
c0
43
3c
ENDCHAR
STARTCHAR ecaron
ENCODING 236
SWIDTH 572 0
DWIDTH 9 0
BBX 8 10 1 1
BITMAP
34
18
00
3c
66
c3
ff
c0
43
3c
ENDCHAR
STARTCHAR iacute
ENCODING 237
SWIDTH 572 0
DWIDTH 9 0
BBX 7 10 1 1
BITMAP
38
20
00
78
18
18
18
18
18
fe
ENDCHAR
STARTCHAR icircumflex
ENCODING 238
SWIDTH 572 0
DWIDTH 9 0
BBX 7 10 1 1
BITMAP
18
00
00
78
18
18
18
18
18
fe
ENDCHAR
STARTCHAR dcaron
ENCODING 239
SWIDTH 572 0
DWIDTH 9 0
BBX 12 10 0 1
BITMAP
0fe0
0180
0300
3f00
6300
c100
c100
c300
6300
3f80
ENDCHAR
STARTCHAR dbar
ENCODING 240
SWIDTH 572 0
DWIDTH 9 0
BBX 9 10 0 1
BITMAP
0f00
0300
1f80
3f00
6300
c300
c100
c100
6300
3f80
ENDCHAR
STARTCHAR nacute
ENCODING 241
SWIDTH 572 0
DWIDTH 9 0
BBX 9 10 0 1
BITMAP
1c00
1000
0000
fe00
7300
6300
6300
6300
6300
f780
ENDCHAR
STARTCHAR ncaron
ENCODING 242
SWIDTH 572 0
DWIDTH 9 0
BBX 9 10 0 1
BITMAP
1a00
0c00
0000
fe00
7300
6300
6300
6300
6300
f780
ENDCHAR
STARTCHAR oacute
ENCODING 243
SWIDTH 572 0
DWIDTH 9 0
BBX 9 10 0 1
BITMAP
1c00
1000
0000
3e00
6300
c180
c180
c180
6300
3e00
ENDCHAR
STARTCHAR ocircumflex
ENCODING 244
SWIDTH 572 0
DWIDTH 9 0
BBX 9 10 0 1
BITMAP
0c00
0000
0000
3e00
6300
c180
c180
c180
6300
3e00
ENDCHAR
STARTCHAR ohungarumlaut
ENCODING 245
SWIDTH 572 0
DWIDTH 9 0
BBX 9 10 0 1
BITMAP
1600
2400
0000
3e00
6300
c180
c180
c180
6300
3e00
ENDCHAR
STARTCHAR odieresis
ENCODING 246
SWIDTH 572 0
DWIDTH 9 0
BBX 9 11 0 1
BITMAP
1e00
1e00
0000
0000
3e00
6300
c180
c180
c180
6300
3e00
ENDCHAR
STARTCHAR divide
ENCODING 247
SWIDTH 572 0
DWIDTH 9 0
BBX 8 7 1 2
BITMAP
18
18
ff
00
00
18
18
ENDCHAR
STARTCHAR rcaron
ENCODING 248
SWIDTH 572 0
DWIDTH 9 0
BBX 8 10 1 1
BITMAP
34
18
00
ff
39
30
30
30
30
fc
ENDCHAR
STARTCHAR uring
ENCODING 249
SWIDTH 572 0
DWIDTH 9 0
BBX 9 11 0 1
BITMAP
0c00
1e00
0c00
0000
e700
6300
6300
6300
6300
6700
3f80
ENDCHAR
STARTCHAR uacute
ENCODING 250
SWIDTH 572 0
DWIDTH 9 0
BBX 9 10 0 1
BITMAP
1c00
1000
0000
e700
6300
6300
6300
6300
6700
3f80
ENDCHAR
STARTCHAR uhungarumlaut
ENCODING 251
SWIDTH 572 0
DWIDTH 9 0
BBX 9 10 0 1
BITMAP
1600
2400
0000
e700
6300
6300
6300
6300
6700
3f80
ENDCHAR
STARTCHAR udieresis
ENCODING 252
SWIDTH 572 0
DWIDTH 9 0
BBX 9 11 0 1
BITMAP
1e00
1e00
0000
0000
e700
6300
6300
6300
6300
6700
3f80
ENDCHAR
STARTCHAR yacute
ENCODING 253
SWIDTH 572 0
DWIDTH 9 0
BBX 9 12 0 -1
BITMAP
1c00
1000
0000
f380
6100
3200
3200
1c00
0c00
0800
1800
fc00
ENDCHAR
STARTCHAR tcedilla
ENCODING 254
SWIDTH 572 0
DWIDTH 9 0
BBX 8 12 1 -2
BITMAP
60
60
fe
60
60
60
60
63
3e
18
1c
3c
ENDCHAR
STARTCHAR dotaccent
ENCODING 255
SWIDTH 572 0
DWIDTH 9 0
BBX 2 1 4 10
BITMAP
c0
ENDCHAR
ENDFONT
